# xmcd CD database file
#
# Track frame offsets:
#	150
#	16015
#	26830
#	45815
#	61025
#	90300
#	103617
#	118340
#	135092
#	151247
#	154550
#	169482
#	186292
#	204622
#
# Disc length: 2981 seconds
#
# Revision: 4
# Processed by: cddbd v1.5.1PL0 Copyright (c) Steve Scherf et al.
# Submitted via: CDex 1.51
#
DISCID=a30ba30e
DTITLE=The Love Dogs - Heavy Petting
DYEAR=1998
DGENRE=Blues
TTITLE0=Lock You Up
TTITLE1=Rockin At the Doghouse
TTITLE2=Hot Weather Blues
TTITLE3=Too Old To Die Young
TTITLE4=Something's Wrong
TTITLE5=Wrong Lake To Catch A Fish
TTITLE6=You Don't Care
TTITLE7=Forget About It
TTITLE8=Who Got You, Mama?
TTITLE9=Nobody's Dog  (part 2)
TTITLE10=Oh Babe!
TTITLE11=That's The Stuff You Gotta Watch
TTITLE12=Gotta Have A Little Lovin'
TTITLE13=Roll With My Baby
EXTD=YEAR: 1998
EXTT0=
EXTT1=
EXTT2=
EXTT3=
EXTT4=
EXTT5=
EXTT6=
EXTT7=
EXTT8=
EXTT9=
EXTT10=
EXTT11=
EXTT12=
EXTT13=
PLAYORDER=
